<svg version="1.1" width="41" height="56" viewBox="5 4 41 56" xmlns="http://www.w3.org/2000/svg" xmlns:xlink="http://www.w3.org/1999/xlink">
  <!-- Exported by Scratch - http://scratch.mit.edu/ -->
  <path id="ID0.7154591856524348" fill="none" stroke="#FF6161" stroke-width="2" d="M 229.625 151.500 C 234.074 151.500 238.105 153.307 241.024 156.226 C 243.943 159.145 245.750 163.176 245.750 167.625 C 245.750 172.074 243.943 176.105 241.024 179.024 C 238.105 181.943 234.074 183.750 229.625 183.750 C 225.176 183.750 221.145 181.943 218.226 179.024 C 215.307 176.105 213.500 172.074 213.500 167.625 C 213.500 163.176 215.307 159.145 218.226 156.226 C 221.145 153.307 225.176 151.500 229.625 151.500 Z " transform="matrix(1.0394856929779053, -0.44092637300491333, 0.44103124737739563, 1.0397330522537231, -287.25, -40.05)"/>
  <path id="ID0.7154591856524348" fill="none" stroke="#3BA9FF" stroke-width="2" d="M 229.625 151.500 C 234.074 151.500 238.105 153.307 241.024 156.226 C 243.943 159.145 245.750 163.176 245.750 167.625 C 245.750 172.074 243.943 176.105 241.024 179.024 C 238.105 181.943 234.074 183.750 229.625 183.750 C 225.176 183.750 221.145 181.943 218.226 179.024 C 215.307 176.105 213.500 172.074 213.500 167.625 C 213.500 163.176 215.307 159.145 218.226 156.226 C 221.145 153.307 225.176 151.500 229.625 151.500 Z " transform="matrix(0.6943283081054688, -0.294518381357193, 0.6602648496627808, 1.5565770864486694, -245.15, -161.3)"/>
</svg>